<?xml version="1.0" encoding="UTF-8"?>
<!DOCTYPE svg PUBLIC "-//W3C//DTD SVG 1.1//EN" "http://www.w3.org/Graphics/SVG/1.1/DTD/svg11.dtd">
<!-- Creator: CorelDRAW -->
<svg xmlns="http://www.w3.org/2000/svg" xml:space="preserve" width="297mm" height="210mm" style="shape-rendering:geometricPrecision; text-rendering:geometricPrecision; image-rendering:optimizeQuality; fill-rule:evenodd; clip-rule:evenodd"
viewBox="0 0 297 210"
 xmlns:xlink="http://www.w3.org/1999/xlink">
 <defs>
  <style type="text/css">
   <![CDATA[
    .fil1 {fill:none}
    .fil0 {fill:#1F1A17;fill-rule:nonzero}
   ]]>
  </style>
 </defs>
 <g id="Слой_x0020_1">
  <metadata id="CorelCorpID_0Corel-Layer"/>
  <g id="_104501856">
   <path id="_104623608" class="fil0" d="M41.7447 92.5054c-4.166,0 -7.5056,-1.8984 -10.019,-5.7049 -2.5065,-3.7967 -3.7597,-8.7461 -3.7597,-14.8384 0,-6.5475 1.2808,-11.768 3.8354,-15.6617 2.5547,-3.8936 6.0252,-5.8404 10.4046,-5.8404 4.0627,0 7.3335,1.8887 9.8193,5.6661 2.479,3.7871 3.7184,8.7364 3.7184,14.8481 0,6.6347 -1.267,11.8843 -3.8148,15.7489 -2.5409,3.8548 -5.9356,5.7823 -10.1842,5.7823zm0.2203 -36.1178c-2.651,0 -4.8063,1.3851 -6.4658,4.1648 -1.6595,2.7895 -2.4927,6.4507 -2.4927,10.9836 0,4.5232 0.8125,8.165 2.4238,10.9254 1.6113,2.7604 3.7253,4.1454 6.335,4.1454 2.7682,0 4.9579,-1.3172 6.5554,-3.942 1.6044,-2.6345 2.4032,-6.315 2.4032,-11.0417 0,-4.8622 -0.7781,-8.6202 -2.3343,-11.2644 -1.5494,-2.6442 -3.6909,-3.9711 -6.4246,-3.9711zm40.9711 35.4398l-6.2524 0 -10.0672 -18.6158c-0.3787,-0.6974 -0.6059,-1.172 -0.6817,-1.4141l-0.0826 0 0 20.0299 -4.7995 0 0 -40.6894 4.7995 0 0 19.1195 0.0826 0c0.1584,-0.4165 0.3856,-0.8717 0.6817,-1.3851l9.7023 -17.7344 5.7497 0 -11.3549 19.5166 12.2225 21.1728zm3.3534 0l0 -40.6894 16.8842 0 0 5.763 -12.0847 0 0 11.1191 5.5294 0c2.954,0 5.2608,0.9879 6.9065,2.9541 1.6458,1.9662 2.4721,4.7557 2.4721,8.3684 0,3.8549 -0.8814,6.9059 -2.6304,9.1336 -1.756,2.2373 -4.1522,3.3512 -7.1751,3.3512l-9.902 0zm4.7995 -18.4415l0 13.0466 4.3381 0c1.7628,0 3.1193,-0.5811 4.0765,-1.7531 0.9502,-1.172 1.4322,-2.8089 1.4322,-4.9106 0,-4.2617 -1.811,-6.3829 -5.4329,-6.3829l-4.4139 0zm58.8607 -16.4075l-11.2172 0 0 34.849 -4.7994 0 0 -40.6894 16.0166 0 0 5.8404zm15.2247 35.527c-4.166,0 -7.5057,-1.8984 -10.019,-5.7049 -2.5065,-3.7967 -3.7597,-8.7461 -3.7597,-14.8384 0,-6.5475 1.2808,-11.768 3.8354,-15.6617 2.5547,-3.8936 6.0252,-5.8404 10.4046,-5.8404 4.0627,0 7.3335,1.8887 9.8193,5.6661 2.4789,3.7871 3.7184,8.7364 3.7184,14.8481 0,6.6347 -1.267,11.8843 -3.8148,15.7489 -2.5409,3.8548 -5.9356,5.7823 -10.1842,5.7823zm0.2203 -36.1178c-2.6511,0 -4.8063,1.3851 -6.4658,4.1648 -1.6595,2.7895 -2.4927,6.4507 -2.4927,10.9836 0,4.5232 0.8125,8.165 2.4238,10.9254 1.6113,2.7604 3.7253,4.1454 6.335,4.1454 2.7681,0 4.9579,-1.3172 6.5554,-3.942 1.6044,-2.6345 2.4032,-6.315 2.4032,-11.0417 0,-4.8622 -0.7781,-8.6202 -2.3343,-11.2644 -1.5494,-2.6442 -3.6909,-3.9711 -6.4246,-3.9711zm39.2565 33.7351c-2.1759,1.5885 -4.889,2.3827 -8.1254,2.3827 -4.2004,0 -7.5607,-1.8596 -10.0878,-5.5886 -2.5271,-3.729 -3.7941,-8.6106 -3.7941,-14.6641 0,-6.5087 1.4185,-11.7681 4.2692,-15.7779 2.8439,-4.0099 6.4384,-6.0148 10.7833,-6.0148 2.7957,0 5.1163,0.5521 6.9548,1.6659l0 6.7025c-1.9487,-1.6272 -4.0971,-2.4408 -6.4521,-2.4408 -3.1331,0 -5.674,1.4044 -7.6158,4.2229 -1.9418,2.8186 -2.9196,6.5863 -2.9196,11.2935 0,4.4845 0.909,8.0585 2.7268,10.7124 1.8179,2.6635 4.2004,3.9904 7.1613,3.9904 2.7269,0 5.0956,-0.9104 7.0994,-2.7216l0 6.2375zm24.0524 -33.2508l-8.3112 0 0 34.9555 -4.7995 0 0 -34.9555 -8.2975 0 0 -5.7339 21.4082 0 0 5.7339zm20.4787 34.9555l-16.2369 0 0 -40.6894 15.5896 0 0 5.7339 -10.7902 0 0 11.5162 9.9432 0 0 5.7049 -9.9432 0 0 12.0295 11.4375 0 0 5.7049zm5.1438 0l0 -40.6894 9.1788 0c2.7957,0 5.013,0.862 6.6449,2.5764 1.632,1.724 2.4514,3.9711 2.4514,6.7315 0,2.3052 -0.4682,4.3101 -1.3909,6.0148 -0.9296,1.7047 -2.2173,2.9154 -3.8561,3.6321l0 0.1162c1.99,0.3197 3.5806,1.356 4.7719,3.0994 1.1913,1.7532 1.7834,4.0293 1.7834,6.8284 0,3.4772 -0.9709,6.2957 -2.9265,8.4556 -1.9487,2.1599 -4.4069,3.235 -7.3816,3.235l-9.2753 0zm4.7788 -35.2751l0 11.584 3.1055 0c1.6664,0 2.9747,-0.5521 3.9249,-1.6659 0.9503,-1.1042 1.4186,-2.6733 1.4186,-4.6975 0,-3.4772 -1.6527,-5.2206 -4.9579,-5.2206l-3.4911 0zm0 16.9983l0 12.8819 4.0971 0c1.7834,0 3.1675,-0.5811 4.1453,-1.7434 0.9709,-1.1623 1.4598,-2.7604 1.4598,-4.8041 0,-4.2229 -2.0796,-6.3344 -6.2317,-6.3344l-3.4705 0z"/>
   <g>
    <g>
     <g>
      <path id="_104623008" class="fil0" d="M171.114 117.632c2.7311,0.6988 5.8514,1.3229 9.2967,1.8557 -1.7729,0.5334 -3.5471,1.0667 -5.3199,1.6001 -4.0676,-0.6291 -7.7525,-1.3658 -10.9771,-2.1909 2.3328,-0.4218 4.6676,-0.8431 7.0003,-1.2649z"/>
      <path id="_104623104" class="fil0" d="M171.114 117.632c2.7311,0.6988 5.8514,1.3229 9.2967,1.8557 -1.7729,0.5334 -3.5471,1.0667 -5.3199,1.6001 -4.0676,-0.6291 -7.7525,-1.3658 -10.9771,-2.1909 2.3328,-0.4218 4.6676,-0.8431 7.0003,-1.2649z"/>
      <path id="_104623488" class="fil0" d="M175.285 118.581c3.0544,0.6155 6.455,1.1483 10.1152,1.5843 -1.4719,0.5743 -2.9437,1.1487 -4.4155,1.723 -4.3237,-0.5151 -8.3407,-1.1444 -11.9486,-1.8714 2.0824,-0.4787 4.1664,-0.9572 6.2489,-1.4359z"/>
      <path id="_104623440" class="fil0" d="M179.88 119.405c3.3404,0.5284 6.9728,0.9667 10.8064,1.3059 -1.1537,0.6071 -2.3062,1.2144 -3.4599,1.8215 -4.5276,-0.4006 -8.8175,-0.9183 -12.7628,-1.5424 1.8063,-0.5282 3.61,-1.0569 5.4163,-1.585z"/>
      <path id="_104623200" class="fil0" d="M184.831 120.097c3.5884,0.438 7.4095,0.7813 11.3798,1.022 -0.8221,0.6316 -1.6414,1.2635 -2.4635,1.8951 -4.6875,-0.2841 -9.1985,-0.6895 -13.4349,-1.2066 1.5074,-0.57 3.0111,-1.1405 4.5186,-1.7105z"/>
      <path id="_104623224" class="fil0" d="M190.089 120.657c2.4379,0.2224 4.9536,0.4033 7.5215,0.5418 1.4204,0.0763 2.8561,0.1391 4.3017,0.1889 -0.4779,0.6479 -0.9577,1.2957 -1.4356,1.9436 -1.7062,-0.0587 -3.4009,-0.1328 -5.0773,-0.2229 -3.0311,-0.1635 -6.0005,-0.3771 -8.878,-0.6396 1.1913,-0.6037 2.3802,-1.2077 3.5677,-1.8118z"/>
      <path id="_104623536" class="fil0" d="M195.589 121.08c0.6698,0.0424 1.3439,0.0818 2.0212,0.1182 3.3174,0.1774 6.7106,0.283 10.1255,0.3147 -0.1278,0.6554 -0.2563,1.3109 -0.3841,1.9663 -4.0311,-0.0374 -8.0367,-0.1621 -11.9526,-0.3714 -0.7995,-0.043 -1.595,-0.0895 -2.3855,-0.1395 0.8592,-0.6294 1.7171,-1.2589 2.5755,-1.8883z"/>
      <path id="_104707040" class="fil0" d="M201.274 121.365c4.0706,0.1502 8.2162,0.193 12.335,0.128 0.2284,0.6542 0.454,1.3084 0.6793,1.9627 -4.8634,0.0767 -9.7583,0.0262 -14.5648,-0.1512 0.5178,-0.6465 1.0326,-1.2931 1.5505,-1.9395z"/>
      <path id="_104707424" class="fil0" d="M207.085 121.507c4.1519,0.0483 8.3209,-0.0134 12.4031,-0.1835 0.5814,0.644 1.1641,1.2879 1.7455,1.9318 -4.8219,0.201 -9.7462,0.2738 -14.6504,0.2168 0.1676,-0.655 0.3342,-1.3101 0.5018,-1.9651z"/>
      <path id="_104706848" class="fil0" d="M212.958 121.502c4.1949,-0.057 8.3433,-0.2254 12.3463,-0.5016 0.9348,0.6243 1.8661,1.2489 2.7981,1.8735 -4.7282,0.3262 -9.6281,0.5251 -14.583,0.5924 -0.1857,-0.6548 -0.3757,-1.3095 -0.5614,-1.9643z"/>
      <path id="_104707304" class="fil0" d="M218.836 121.349c3.4023,-0.1333 6.7352,-0.3413 9.9425,-0.6197 0.7425,-0.0647 1.4782,-0.133 2.2058,-0.2051 1.2725,0.596 2.5458,1.192 3.8182,1.788 -0.8575,0.0849 -1.7244,0.1655 -2.5992,0.2417 -3.7873,0.3287 -7.7226,0.5743 -11.74,0.7317 -0.5421,-0.6455 -1.0852,-1.2911 -1.6273,-1.9366z"/>
      <path id="_104707400" class="fil0" d="M224.659 121.044c1.3929,-0.0922 2.7672,-0.1973 4.1187,-0.3147 2.6086,-0.2273 5.1255,-0.5009 7.5256,-0.8173 1.5933,0.5591 3.1861,1.1183 4.7794,1.6774 -2.8322,0.3732 -5.8021,0.6963 -8.8802,0.9645 -1.5953,0.1386 -3.2176,0.2626 -4.8618,0.3715 -0.8897,-0.6274 -1.7837,-1.2545 -2.6817,-1.8814z"/>
      <path id="_104706824" class="fil0" d="M230.368 120.585c3.8568,-0.3703 7.4887,-0.8418 10.8064,-1.4045 1.8877,0.5148 3.7751,1.0297 5.6628,1.5445 -3.918,0.6646 -8.2069,1.2214 -12.7618,1.6588 -1.2364,-0.5996 -2.4711,-1.1993 -3.7074,-1.7988z"/>
      <path id="_104707184" class="fil0" d="M235.783 119.98c3.5782,-0.4616 6.8833,-1.0166 9.8328,-1.6519 2.1566,0.4632 4.3108,0.9271 6.4674,1.3903 -3.484,0.7504 -7.3884,1.4059 -11.6151,1.9513 -1.5615,-0.5632 -3.1235,-1.1264 -4.6851,-1.6897z"/>
      <path id="_104706992" class="fil0" d="M240.752 119.251c3.2712,-0.5451 6.2239,-1.1758 8.7873,-1.8748 2.3915,0.4062 4.7845,0.812 7.176,1.2182 -3.0271,0.8256 -6.5139,1.5702 -10.3771,2.214 -1.8618,-0.5191 -3.7244,-1.0383 -5.5862,-1.5574z"/>
      <path id="_104706872" class="fil0" d="M245.236 118.409c2.8477,-0.603 5.3571,-1.2766 7.4782,-2.0053 0.0673,-0.0232 0.1344,-0.0465 0.2009,-0.0698 2.5944,0.3436 5.1906,0.6867 7.7849,1.0303 -0.0781,0.0274 -0.1569,0.0547 -0.2359,0.082 -2.5045,0.8605 -5.467,1.6557 -8.8294,2.3677 -2.1321,-0.4684 -4.2665,-0.9364 -6.3987,-1.4049z"/>
      <path id="_104707136" class="fil0" d="M249.209 117.466c1.2647,-0.3384 2.4363,-0.6931 3.5054,-1.0615 1.1086,-0.3828 2.1074,-0.7799 2.9909,-1.1889 2.7626,0.2762 5.5254,0.5524 8.2879,0.8286 -1.0425,0.4826 -2.2209,0.9511 -3.5289,1.4028 -1.2624,0.4351 -2.6454,0.8538 -4.1389,1.2534 -2.3727,-0.4113 -4.7438,-0.8231 -7.1164,-1.2344z"/>
      <path id="_104706344" class="fil0" d="M252.634 116.432c0.0268,-0.0092 0.0539,-0.0184 0.0806,-0.0276 2.1523,-0.744 3.8898,-1.5414 5.1635,-2.3741 2.8937,0.2047 5.7869,0.4098 8.6806,0.6144 -1.5033,0.9828 -3.5538,1.924 -6.0942,2.8022 -0.032,0.011 -0.0642,0.0221 -0.0963,0.0331 -2.5768,-0.3497 -5.155,-0.699 -7.7342,-1.048z"/>
      <path id="_104706224" class="fil0" d="M255.479 115.319c1.7762,-0.8053 3.097,-1.6546 3.9207,-2.5284 2.9854,0.1299 5.9708,0.26 8.9562,0.3899 -0.9729,1.0319 -2.5323,2.0348 -4.6299,2.9858 -2.7486,-0.2826 -5.4984,-0.5647 -8.247,-0.8473z"/>
      <path id="_104706392" class="fil0" d="M257.709 114.139c1.3393,-0.851 2.1901,-1.7351 2.5279,-2.6308 3.0359,0.0524 6.0721,0.1048 9.1079,0.1573 -0.3989,1.058 -1.4038,2.1023 -2.9858,3.1076 -2.8836,-0.2111 -5.7664,-0.4229 -8.65,-0.6341z"/>
      <path id="_104706080" class="fil0" d="M259.29 112.904c0.875,-0.8904 1.2313,-1.8008 1.0665,-2.7102 3.0431,-0.0269 6.0865,-0.053 9.1297,-0.0799 0.1946,1.074 -0.2266,2.1491 -1.2599,3.2006 -2.9785,-0.1371 -5.9578,-0.2734 -8.9363,-0.4105z"/>
      <path id="_104705984" class="fil0" d="M260.19 111.625c0.2441,-0.5821 0.2709,-1.1677 0.0838,-1.7507 -0.1087,-0.334 -0.2892,-0.6669 -0.538,-0.9974 3.0055,-0.1062 6.0118,-0.2117 9.0182,-0.3167 0.2934,0.39 0.5063,0.7826 0.6347,1.1767 0.2208,0.6882 0.1891,1.3794 -0.0991,2.0664 -3.033,-0.0596 -6.0665,-0.1187 -9.0996,-0.1783z"/>
      <path id="_104706680" class="fil0" d="M260.376 110.313c-0.0204,-0.1465 -0.054,-0.293 -0.1016,-0.4392 -0.254,-0.7686 -0.8787,-1.5297 -1.8694,-2.2701 2.9255,-0.1825 5.8511,-0.3649 8.7768,-0.5472 1.1697,0.8741 1.9075,1.7726 2.2075,2.6799 0.0561,0.1725 0.0958,0.3453 0.1199,0.5181 -3.0443,0.0196 -6.089,0.0389 -9.1332,0.0585z"/>
      <path id="_104706560" class="fil0" d="M259.821 108.993c-0.6343,-0.894 -1.7822,-1.7692 -3.4158,-2.6023 2.8045,-0.2558 5.6098,-0.5114 8.4143,-0.7672 1.9298,0.9842 3.2858,2.0179 4.035,3.0739 -3.0111,0.0983 -6.0223,0.1973 -9.0335,0.2956z"/>
      <path id="_104706584" class="fil0" d="M258.553 107.717c-1.1181,-0.8621 -2.7218,-1.6923 -4.7756,-2.4705 2.6464,-0.3247 5.2925,-0.6496 7.9389,-0.9743 2.4259,0.9191 4.32,1.8998 5.6405,2.9181 -2.9352,0.1751 -5.8696,0.3509 -8.8038,0.5267z"/>
      <path id="_104705936" class="fil0" d="M256.612 106.497c-1.5726,-0.8223 -3.6082,-1.6011 -6.0523,-2.3179 2.4521,-0.389 4.9059,-0.7777 7.3581,-1.1668 2.886,0.8463 5.2893,1.7659 7.1461,2.7369 -2.8172,0.2493 -5.6348,0.4986 -8.4519,0.7478z"/>
      <path id="_104706032" class="fil0" d="M254.038 105.346c-1.5685,-0.6063 -3.4012,-1.1794 -5.4695,-1.7116 -0.5741,-0.1473 -1.1664,-0.2914 -1.7756,-0.432 2.2269,-0.4475 4.4522,-0.8955 6.6792,-1.343 0.719,0.166 1.418,0.336 2.0957,0.5099 2.4414,0.6283 4.6048,1.3047 6.4563,2.0204 -2.6618,0.3188 -5.3243,0.6374 -7.9861,0.9563z"/>
      <path id="_104706248" class="fil0" d="M250.874 104.272c-0.7323,-0.2187 -1.5004,-0.4318 -2.3052,-0.6383 -1.8417,-0.4719 -3.8649,-0.91 -6.0467,-1.309 1.9698,-0.5003 3.9388,-1.0009 5.9085,-1.5012 2.5754,0.471 4.9636,0.9881 7.1375,1.5451 0.9499,0.2438 1.8566,0.4953 2.7209,0.7533 -2.4716,0.3834 -4.9435,0.7667 -7.415,1.1501z"/>
      <path id="_104709800" class="fil0" d="M247.154 103.286c-2.7889,-0.6549 -5.9336,-1.2359 -9.3694,-1.7281 1.6845,-0.5465 3.3669,-1.0934 5.0514,-1.6399 4.0565,0.5811 7.7695,1.2669 11.0623,2.0401 -2.2503,0.4421 -4.4969,0.8851 -6.7443,1.3279z"/>
      <path id="_104709896" class="fil0" d="M242.925 102.4c-3.1399,-0.5843 -6.6029,-1.0847 -10.306,-1.4879 1.3706,-0.5859 2.7419,-1.1717 4.1149,-1.7572 4.3737,0.4763 8.464,1.0672 12.1725,1.7573 -1.9943,0.4958 -3.9871,0.992 -5.9814,1.4878z"/>
      <path id="_104709248" class="fil0" d="M238.228 101.623c-3.4684,-0.5062 -7.2208,-0.9186 -11.1592,-1.2263 1.0359,-0.6169 2.0734,-1.2337 3.1093,-1.8506 4.6522,0.3635 9.0847,0.8506 13.1817,1.4485 -1.7118,0.5426 -3.42,1.0858 -5.1318,1.6284z"/>
      <path id="_104709704" class="fil0" d="M233.101 100.965c-3.502,-0.3898 -7.2072,-0.6902 -11.0309,-0.8965 -0.2979,-0.016 -0.5966,-0.0315 -0.8956,-0.0463 0.6819,-0.6393 1.3674,-1.2785 2.0493,-1.9179 0.3527,0.0175 0.7048,0.0357 1.056,0.0545 4.5145,0.2436 8.8889,0.5984 13.0236,1.0587 -1.4009,0.5825 -2.8014,1.165 -4.2024,1.7475z"/>
      <path id="_104709128" class="fil0" d="M227.585 100.437c-1.8043,-0.1451 -3.646,-0.2684 -5.5148,-0.3688 -2.2776,-0.1219 -4.5917,-0.2102 -6.9253,-0.2638 0.3198,-0.6523 0.6421,-1.3047 0.9619,-1.9571 2.754,0.0633 5.4851,0.1674 8.1731,0.3112 2.2054,0.1186 4.3785,0.264 6.5077,0.4353 -1.0693,0.6143 -2.1369,1.2287 -3.2026,1.8432z"/>
      <path id="_104709512" class="fil0" d="M221.719 100.05c-4.118,-0.2135 -8.3488,-0.3163 -12.5841,-0.3044 -0.0425,-0.656 -0.0853,-1.312 -0.1278,-1.9679 5.0008,-0.014 9.9965,0.1072 14.8586,0.3593 -0.7156,0.6376 -1.4311,1.2754 -2.1467,1.913z"/>
      <path id="_104709488" class="fil0" d="M215.691 99.8176c-4.1526,-0.1035 -8.3548,-0.0966 -12.4992,0.0214 -0.4021,-0.6502 -0.8026,-1.3006 -1.2047,-1.9508 4.8956,-0.1394 9.8594,-0.1477 14.7648,-0.0253 -0.3533,0.6516 -0.7075,1.3032 -1.0609,1.9547z"/>
      <path id="_104709056" class="fil0" d="M210.077 99.7443c-4.1466,-0.0026 -8.2812,0.1031 -12.3088,0.3157 -0.7307,-0.6369 -1.4575,-1.2739 -2.1854,-1.911 4.7568,-0.2511 9.6399,-0.3759 14.5372,-0.3727 -0.0182,0.656 -0.034,1.312 -0.043,1.968z"/>
      <path id="_104709440" class="fil0" d="M204.519 99.8048c-4.102,0.0951 -8.1379,0.2969 -12.0151,0.6008 -1.045,-0.6162 -2.09,-1.2324 -3.1349,-1.8486 4.5775,-0.3587 9.3424,-0.5969 14.1856,-0.7092 0.3229,0.6523 0.6416,1.3047 0.9644,1.957z"/>
      <path id="_104709392" class="fil0" d="M199.061 99.9952c-2.7849,0.1314 -5.5162,0.3134 -8.1601,0.5431 -1.1696,0.1019 -2.322,0.2131 -3.4533,0.3335 -1.3486,-0.5882 -2.6978,-1.1764 -4.0463,-1.7646 1.3352,-0.142 2.6953,-0.2733 4.0759,-0.3936 3.1207,-0.2712 6.3447,-0.486 9.6321,-0.641 0.6516,0.6408 1.3001,1.2818 1.9517,1.9226z"/>
      <path id="_104709752" class="fil0" d="M193.753 100.311c-0.9605,0.0696 -1.9114,0.1454 -2.8513,0.227 -2.8726,0.251 -5.6352,0.5573 -8.2507,0.9157 -1.6384,-0.553 -3.2737,-1.1064 -4.9122,-1.6594 3.0874,-0.4231 6.3483,-0.7847 9.7392,-1.081 1.1093,-0.0964 2.2316,-0.1857 3.3653,-0.2679 0.9686,0.6219 1.9411,1.2437 2.9097,1.8656z"/>
      <path id="_104709320" class="fil0" d="M188.644 100.749c-3.7444,0.3735 -7.2705,0.8438 -10.4888,1.4001 -1.9096,-0.511 -3.8161,-1.0227 -5.7257,-1.5337 3.7999,-0.6569 7.9627,-1.2122 12.3839,-1.6532 1.2761,0.5957 2.5546,1.1911 3.8306,1.7868z"/>
      <path id="_104709152" class="fil0" d="M183.78 101.303c-3.5538,0.4613 -6.837,1.0149 -9.767,1.6478 -2.1598,-0.4625 -4.3201,-0.925 -6.4769,-1.3882 3.4607,-0.7475 7.3385,-1.4014 11.5357,-1.9463 1.5688,0.5622 3.1394,1.1244 4.7082,1.6867z"/>
      <path id="_104708864" class="fil0" d="M179.205 101.972c-3.3273,0.5471 -6.3289,1.181 -8.9373,1.8862 -2.3849,-0.408 -4.7706,-0.8159 -7.1554,-1.2239 3.0811,-0.833 6.6269,-1.5818 10.5572,-2.2281 1.8429,0.5222 3.6891,1.0441 5.5355,1.5658z"/>
      <path id="_104708600" class="fil0" d="M174.975 102.748c-3.0663,0.6313 -5.7542,1.3424 -8.007,2.1164 -2.5828,-0.3477 -5.1667,-0.695 -7.7494,-1.0427 2.66,-0.9139 5.8339,-1.7534 9.4542,-2.4987 2.1012,0.4749 4.2009,0.9502 6.3022,1.425z"/>
     </g>
    </g>
    <path id="_104708744" class="fil1" d="M167.614 118.264c15.3488,3.9407 40.7334,5.3044 62.8764,3.3777 22.143,-1.9267 36.0073,-6.7054 34.3411,-11.8367 -1.6662,-5.1313 -18.4839,-9.4478 -41.6564,-10.6918 -23.1726,-1.2441 -47.4288,0.8674 -60.0814,5.23"/>
    <g>
     <g>
      <path id="_104708912" class="fil0" d="M118.861 103.63c-2.7302,-0.6985 -5.8555,-1.322 -9.3007,-1.8541 1.7729,-0.5334 3.5426,-1.0674 5.3154,-1.6008 4.0677,0.6283 7.7581,1.3643 10.9816,2.1891 -2.3328,0.4217 -4.6635,0.8441 -6.9963,1.2658z"/>
      <path id="_104708312" class="fil0" d="M118.861 103.63c-2.7302,-0.6985 -5.8555,-1.322 -9.3007,-1.8541 1.7729,-0.5334 3.5426,-1.0674 5.3154,-1.6008 4.0677,0.6283 7.7581,1.3643 10.9816,2.1891 -2.3328,0.4217 -4.6635,0.8441 -6.9963,1.2658z"/>
      <path id="_104708336" class="fil0" d="M114.688 102.681c-3.0564,-0.6151 -6.4578,-1.1467 -10.118,-1.5827 1.4705,-0.5745 2.9402,-1.1491 4.4107,-1.7236 4.3237,0.5151 8.3414,1.143 11.952,1.8696 -2.0808,0.479 -4.1638,0.9576 -6.2447,1.4367z"/>
      <path id="_104708432" class="fil0" d="M110.092 101.859c-3.3416,-0.5278 -6.974,-0.966 -10.8083,-1.3044 1.151,-0.6073 2.304,-1.2146 3.4551,-1.8219 4.5284,0.3996 8.8182,0.9173 12.7649,1.5405 -1.8029,0.5288 -3.6088,1.0571 -5.4117,1.5858z"/>
      <path id="_104708384" class="fil0" d="M105.139 101.167c-3.5866,-0.4378 -7.4112,-0.7807 -11.3807,-1.0204 0.8194,-0.6318 1.6391,-1.2636 2.4585,-1.8955 4.6864,0.283 9.2016,0.688 13.4361,1.2048 -1.5051,0.5703 -3.0088,1.1408 -4.5139,1.7111z"/>
      <path id="_104708696" class="fil0" d="M99.8809 100.608c-2.4382,-0.2218 -4.9535,-0.4028 -7.5215,-0.5408 -1.4208,-0.0759 -2.8563,-0.1389 -4.302,-0.1883 0.4778,-0.6479 0.9528,-1.2959 1.4307,-1.9438 1.7055,0.0584 3.399,0.1326 5.075,0.2222 3.0322,0.1629 6.0019,0.3766 8.8807,0.6385 -1.1901,0.6038 -2.3779,1.2079 -3.5629,1.8122z"/>
      <path id="_104707472" class="fil0" d="M94.3804 100.185c-0.6698,-0.0423 -1.3437,-0.0816 -2.021,-0.118 -3.3189,-0.1767 -6.7102,-0.2818 -10.1257,-0.3134 0.1248,-0.6555 0.2542,-1.3109 0.3791,-1.9664 4.0311,0.0374 8.0335,0.1613 11.9503,0.3699 0.8003,0.0429 1.5965,0.0894 2.388,0.1393 -0.8592,0.6293 -1.7151,1.259 -2.5707,1.8886z"/>
      <path id="_104708216" class="fil0" d="M88.6949 99.9015c-4.0709,-0.1494 -8.2161,-0.1924 -12.3345,-0.1266 -0.2284,-0.6542 -0.4589,-1.3083 -0.6842,-1.9625 4.863,-0.0777 9.7574,-0.027 14.5643,0.1494 -0.5145,0.6466 -1.0311,1.2931 -1.5456,1.9397z"/>
      <path id="_104707712" class="fil0" d="M82.8844 99.7605c-4.1533,-0.0474 -8.3186,0.0147 -12.4019,0.1849 -0.585,-0.6438 -1.1654,-1.2879 -1.7504,-1.9317 4.8231,-0.2009 9.7434,-0.2744 14.6491,-0.2183 -0.1644,0.655 -0.3325,1.3101 -0.4968,1.9651z"/>
      <path id="_104708024" class="fil0" d="M77.0113 99.7653c-4.1934,0.057 -8.3441,0.226 -12.3444,0.503 -0.9347,-0.6244 -1.8706,-1.2487 -2.8025,-1.8732 4.7249,-0.3271 9.6277,-0.5268 14.5807,-0.5941 0.1887,0.6547 0.3774,1.3095 0.5662,1.9643z"/>
      <path id="_104707616" class="fil0" d="M71.1346 99.9189c-3.402,0.1341 -6.733,0.3421 -9.9402,0.6208 -0.7424,0.0647 -1.4778,0.1332 -2.2052,0.2053 -1.2736,-0.5959 -2.5488,-1.1917 -3.8224,-1.7876 0.8579,-0.085 1.7252,-0.1658 2.6007,-0.2421 3.7863,-0.329 7.719,-0.5746 11.7352,-0.7328 0.545,0.6454 1.0868,1.291 1.6319,1.9364z"/>
      <path id="_104708096" class="fil0" d="M65.3119 100.225c-1.3926,0.0923 -2.7668,0.1975 -4.1175,0.3152 -2.6068,0.2277 -5.1253,0.501 -7.5228,0.818 -1.5933,-0.5591 -3.1899,-1.1178 -4.7832,-1.6769 2.8299,-0.3741 5.8022,-0.6967 8.8791,-0.9655 1.5936,-0.1388 3.2151,-0.263 4.8582,-0.3719 0.8925,0.6273 1.7873,1.2543 2.6862,1.8811z"/>
      <path id="_104708120" class="fil0" d="M59.605 100.685c-3.8556,0.3702 -7.4871,0.8425 -10.8019,1.4054 -1.8877,-0.5148 -3.7785,-1.0291 -5.6662,-1.5439 3.9147,-0.6649 8.203,-1.2227 12.7564,-1.6599 1.2364,0.5995 2.4753,1.1989 3.7117,1.7984z"/>
      <path id="_104707760" class="fil0" d="M54.1916 101.29c-3.5778,0.4616 -6.879,1.0176 -9.8278,1.6527 -2.1566,-0.4632 -4.3138,-0.9264 -6.4704,-1.3896 3.4834,-0.7503 7.383,-1.4069 11.6093,-1.9523 1.5629,0.5631 3.1259,1.1262 4.6889,1.6892z"/>
      <path id="_104708144" class="fil0" d="M49.2251 102.019c-3.2686,0.5463 -6.2179,1.1761 -8.7822,1.8754 -2.3927,-0.4058 -4.7859,-0.8117 -7.1786,-1.2175 3.0281,-0.8259 6.5112,-1.5696 10.3711,-2.2147 1.8637,0.5188 3.726,1.0379 5.5897,1.5568z"/>
      <path id="_104707784" class="fil0" d="M44.7434 102.861c-2.8468,0.6029 -5.3543,1.277 -7.4729,2.0058 -0.0674,0.0232 -0.1344,0.0465 -0.2009,0.0698 -2.5956,-0.3431 -5.1913,-0.6864 -7.7869,-1.0296 0.0784,-0.0276 0.1576,-0.055 0.237,-0.0824 2.5011,-0.8603 5.4613,-1.6562 8.822,-2.3679 2.1337,0.4681 4.268,0.9362 6.4017,1.4043z"/>
      <path id="_104514744" class="fil0" d="M40.7732 103.805c-1.2627,0.3388 -2.4335,0.6932 -3.5027,1.0617 -1.1074,0.3828 -2.1067,0.7799 -2.9883,1.189 -2.7626,-0.2762 -5.5269,-0.5517 -8.2895,-0.8278 1.0407,-0.483 2.2199,-0.9516 3.527,-1.4034 1.2621,-0.435 2.644,-0.8532 4.1345,-1.2532 2.3726,0.4113 4.7464,0.8223 7.119,1.2337z"/>
      <path id="_104514696" class="fil0" d="M37.3509 104.84c-0.0268,0.0092 -0.0538,0.0185 -0.0804,0.0277 -2.1521,0.7439 -3.8848,1.5416 -5.1583,2.3741 -2.8936,-0.2047 -5.7881,-0.4089 -8.6817,-0.6136 1.5032,-0.9828 3.5487,-1.9245 6.0892,-2.8027 0.0315,-0.0109 0.0631,-0.0218 0.0948,-0.0327 2.5769,0.3497 5.1572,0.6983 7.7364,1.0472z"/>
      <path id="_104515008" class="fil0" d="M34.5088 105.952c-1.776,0.8052 -3.0919,1.6546 -3.9155,2.5283 -2.9854,-0.1299 -5.9715,-0.2592 -8.9569,-0.3891 0.9726,-1.0317 2.5264,-2.0349 4.6237,-2.9858 2.7498,0.282 5.4988,0.5645 8.2487,0.8466z"/>
      <path id="_104515032" class="fil0" d="M32.2813 107.132c-1.3391,0.8509 -2.1851,1.7351 -2.5228,2.6306 -3.036,-0.0525 -6.0724,-0.1041 -9.1083,-0.1566 0.3989,-1.0578 1.3982,-2.1022 2.9801,-3.1074 2.8836,0.2112 5.7674,0.4222 8.651,0.6334z"/>
      <path id="_104514384" class="fil0" d="M30.7026 108.367c-0.8744,0.8899 -1.2305,1.8009 -1.0617,2.7098 -3.0431,0.0269 -6.0864,0.0537 -9.1295,0.0806 -0.1994,-1.0734 0.2216,-2.1492 1.2543,-3.2001 2.979,0.1364 5.958,0.2732 8.9369,0.4097z"/>
      <path id="_104514648" class="fil0" d="M29.8045 109.647c-0.2414,0.5822 -0.268,1.1673 -0.0809,1.7504 0.1102,0.334 0.289,0.6668 0.5393,0.9972 -3.0055,0.1062 -6.0113,0.2123 -9.0177,0.3173 -0.2952,-0.3898 -0.5063,-0.7825 -0.6364,-1.1765 -0.2208,-0.6882 -0.1891,-1.379 0.0958,-2.0661 3.0334,0.0591 6.0666,0.1187 9.0999,0.1777z"/>
      <path id="_104514312" class="fil0" d="M29.6213 110.958c0.0204,0.1465 0.0547,0.2929 0.1023,0.4391 0.254,0.7685 0.8819,1.5294 1.8725,2.2697 -2.9247,0.183 -5.8505,0.3654 -8.7762,0.5477 -1.1696,-0.8739 -1.9112,-1.7722 -2.2111,-2.6794 -0.0561,-0.1724 -0.0967,-0.3452 -0.1207,-0.518 3.0444,-0.0196 6.0888,-0.0395 9.1332,-0.0591z"/>
      <path id="_104514288" class="fil0" d="M30.1776 112.278c0.6385,0.8941 1.785,1.7685 3.4191,2.6018 -2.8046,0.2558 -5.6088,0.5119 -8.4134,0.7677 -1.9301,-0.9843 -3.2846,-2.0171 -4.0388,-3.0732 3.0108,-0.099 6.0223,-0.1973 9.0331,-0.2963z"/>
      <path id="_104514576" class="fil0" d="M31.4476 113.554c1.118,0.8621 2.7248,1.6919 4.7783,2.47 -2.6465,0.3247 -5.2912,0.6501 -7.9377,0.9748 -2.4255,-0.919 -4.3234,-1.8993 -5.6437,-2.9174 2.9351,-0.1751 5.8697,-0.3509 8.8031,-0.5274z"/>
      <path id="_104514480" class="fil0" d="M33.3903 114.773c1.5739,0.8223 3.6104,1.6006 6.0545,2.3173 -2.4522,0.3891 -4.9046,0.7782 -7.3567,1.1672 -2.8859,-0.8463 -5.2902,-1.7653 -7.1486,-2.7361 2.8173,-0.2492 5.6335,-0.4991 8.4508,-0.7484z"/>
      <path id="_104514672" class="fil0" d="M35.965 115.924c1.5696,0.606 3.4014,1.1792 5.4709,1.711 0.5742,0.1474 1.1669,0.2913 1.776,0.4319 -2.2254,0.4479 -4.4523,0.8955 -6.6778,1.3434 -0.7189,-0.166 -1.4184,-0.3359 -2.0959,-0.5098 -2.443,-0.6278 -4.6052,-1.3043 -6.458,-2.0197 2.6618,-0.3188 5.3231,-0.6379 7.9848,-0.9568z"/>
      <path id="_104513736" class="fil0" d="M39.1302 116.997c0.7322,0.2186 1.5011,0.4316 2.3057,0.638 1.8433,0.4717 3.8656,0.9095 6.0474,1.3086 -1.9679,0.5006 -3.9388,1.0008 -5.9068,1.5015 -2.5755,-0.471 -4.9625,-0.9879 -7.1383,-1.5446 -0.9499,-0.2437 -1.8572,-0.495 -2.7214,-0.7531 2.4701,-0.3837 4.9433,-0.7666 7.4134,-1.1504z"/>
      <path id="_104513640" class="fil0" d="M42.8508 117.983c2.7885,0.6548 5.9348,1.2353 9.37,1.7273 -1.6845,0.5466 -3.3652,1.0937 -5.0497,1.6402 -4.0559,-0.581 -7.7706,-1.2662 -11.063,-2.0393 2.249,-0.4424 4.4968,-0.8851 6.7427,-1.3282z"/>
      <path id="_104514264" class="fil0" d="M47.08 118.869c3.1395,0.5842 6.6035,1.084 10.3061,1.4872 -1.3706,0.5858 -2.7402,1.1718 -4.1132,1.7574 -4.373,-0.4763 -8.4647,-1.0666 -12.1728,-1.7566 1.9927,-0.4961 3.9872,-0.9919 5.9799,-1.488z"/>
      <path id="_104513544" class="fil0" d="M51.7773 119.646c3.4708,0.5056 7.2199,0.9179 11.1591,1.2257 -1.0359,0.6168 -2.0719,1.2338 -3.1078,1.8507 -4.653,-0.3636 -9.0818,-0.8506 -13.1815,-1.4478 1.7083,-0.5431 3.4219,-1.0855 5.1302,-1.6286z"/>
      <path id="_104514024" class="fil0" d="M56.9041 120.304c3.5027,0.3895 7.2066,0.6896 11.0303,0.896 0.2978,0.0159 0.5965,0.0314 0.8956,0.0462 -0.6819,0.6393 -1.3659,1.2786 -2.0479,1.918 -0.3526,-0.0175 -0.7048,-0.0356 -1.0559,-0.0545 -4.5145,-0.2436 -8.8873,-0.5981 -13.0229,-1.058 1.401,-0.5825 2.7999,-1.1652 4.2008,-1.7477z"/>
      <path id="_104514096" class="fil0" d="M62.42 120.831c1.8042,0.1451 3.6458,0.2681 5.5144,0.3686 2.2775,0.1217 4.5912,0.2099 6.9245,0.2634 -0.3198,0.6524 -0.6406,1.3048 -0.9605,1.9572 -2.7537,-0.0632 -5.4843,-0.1672 -8.1722,-0.3109 -2.205,-0.1185 -4.3783,-0.2637 -6.5073,-0.435 1.0694,-0.6142 2.1354,-1.2288 3.2011,-1.8433z"/>
      <path id="_104514000" class="fil0" d="M68.2862 121.218c4.1173,0.2135 8.348,0.3159 12.5825,0.304 0.0426,0.656 0.0866,1.3119 0.1291,1.9679 -4.9999,0.014 -9.9954,-0.1067 -14.857,-0.3588 0.7157,-0.6376 1.4297,-1.2754 2.1454,-1.9131z"/>
      <path id="_104513832" class="fil0" d="M74.3129 121.45c4.152,0.1035 8.3538,0.0962 12.4976,-0.0218 0.4021,0.6503 0.8038,1.3006 1.206,1.9508 -4.8949,0.1394 -9.8582,0.1481 -14.7631,0.0257 0.3534,-0.6515 0.7062,-1.3032 1.0595,-1.9547z"/>
      <path id="_104513904" class="fil0" d="M79.927 121.523c4.1461,0.0026 8.28,-0.1034 12.3069,-0.316 0.7308,0.6369 1.4584,1.2739 2.1863,1.9109 -4.756,0.2511 -9.6385,0.3763 -14.5351,0.3731 0.0182,-0.656 0.0328,-1.312 0.0419,-1.968z"/>
      <path id="_104513976" class="fil0" d="M85.4834 121.462c4.1016,-0.0951 8.1368,-0.2971 12.0134,-0.6009 1.045,0.6162 2.0907,1.2324 3.1356,1.8485 -4.5769,0.3587 -9.3409,0.5972 -14.1834,0.7094 -0.3229,-0.6523 -0.6427,-1.3047 -0.9656,-1.957z"/>
      <path id="_104514120" class="fil0" d="M90.9405 121.272c2.7845,-0.1319 5.5145,-0.3134 8.1587,-0.5432 1.1695,-0.1019 2.3217,-0.2131 3.4529,-0.3334 1.3486,0.5882 2.6984,1.1763 4.047,1.7645 -1.3351,0.142 -2.6949,0.2732 -4.0753,0.3935 -3.1213,0.2712 -6.3437,0.4854 -9.6307,0.6412 -0.6516,-0.6408 -1.301,-1.2818 -1.9526,-1.9226z"/>
      <path id="_104513400" class="fil0" d="M96.2484 120.956c0.9603,-0.0696 1.9115,-0.1452 2.8508,-0.2271 2.8723,-0.2509 5.6343,-0.5573 8.2495,-0.9157 1.6385,0.553 3.2743,1.1064 4.9128,1.6594 -3.0871,0.423 -6.3471,0.7847 -9.7377,1.0809 -1.1087,0.0966 -2.2313,0.1859 -3.3649,0.268 -0.9713,-0.6217 -1.9391,-1.2438 -2.9105,-1.8655z"/>
      <path id="_104513280" class="fil0" d="M101.356 120.518c3.7441,-0.3735 7.2692,-0.8439 10.4871,-1.4001 1.9096,0.511 3.8164,1.0226 5.726,1.5337 -3.7992,0.6567 -7.9611,1.2121 -12.3817,1.653 -1.2761,-0.5956 -2.5553,-1.191 -3.8314,-1.7866z"/>
      <path id="_104513256" class="fil0" d="M106.219 119.964c3.5532,-0.4614 6.8358,-1.015 9.7655,-1.6478 2.1597,0.4626 4.3203,0.925 6.4769,1.3882 -3.4601,0.7474 -7.3369,1.4013 -11.5336,1.9462 -1.5688,-0.5623 -3.14,-1.1243 -4.7088,-1.6866z"/>
      <path id="_104513232" class="fil0" d="M110.793 119.295c3.3268,-0.5471 6.3278,-1.181 8.9359,-1.8861 2.3848,0.4081 4.7708,0.8159 7.1555,1.2239 -3.0808,0.8329 -6.6257,1.5816 -10.5555,2.2279 -1.8448,-0.5219 -3.6896,-1.044 -5.5359,-1.5657z"/>
      <path id="_104513160" class="fil0" d="M115.022 118.519c3.0659,-0.6311 5.7531,-1.3422 8.0057,-2.1162 2.5828,0.3477 5.1667,0.695 7.7495,1.0427 -2.6596,0.9138 -5.8329,1.7532 -9.4527,2.4984 -2.1013,-0.4749 -4.2012,-0.95 -6.3025,-1.4249z"/>
     </g>
    </g>
    <path id="_104512944" class="fil1" d="M122.359 102.997c-15.3587,-3.938 -40.7429,-5.2984 -62.8784,-3.3696 -22.1356,1.9288 -35.9885,6.708 -34.3147,11.8384 1.6738,5.1305 18.4938,9.4454 41.6641,10.6884 23.1704,1.243 47.4219,-0.8685 60.0726,-5.2305"/>
    <g>
     <g>
      <path id="_104512776" class="fil0" d="M125.857 102.364c0.9224,0.2366 1.8246,0.477 2.7067,0.7207 -2.4021,0.4033 -4.8043,0.8067 -7.2064,1.21 -0.8136,-0.2248 -1.6458,-0.4466 -2.4966,-0.6649 2.3328,-0.4217 4.6635,-0.8441 6.9963,-1.2658z"/>
      <path id="_104512752" class="fil0" d="M125.857 102.364c0.9224,0.2366 1.8246,0.477 2.7067,0.7207 -2.4021,0.4033 -4.8043,0.8067 -7.2064,1.21 -0.8136,-0.2248 -1.6458,-0.4466 -2.4966,-0.6649 2.3328,-0.4217 4.6635,-0.8441 6.9963,-1.2658z"/>
      <path id="_104511984" class="fil0" d="M127.156 102.703c0.9005,0.2395 1.7814,0.4826 2.6434,0.7287 -2.4314,0.3951 -4.8641,0.7899 -7.2955,1.1849 -0.7981,-0.2278 -1.6137,-0.4529 -2.4475,-0.6748 2.3657,-0.4131 4.7338,-0.8257 7.0996,-1.2388z"/>
      <path id="_104512512" class="fil0" d="M128.426 103.047c0.8791,0.2423 1.7392,0.4877 2.5817,0.7359 -2.4587,0.3872 -4.9194,0.7738 -7.3781,1.161 -0.7831,-0.2308 -1.5826,-0.4589 -2.3998,-0.6841 2.3995,-0.404 4.7966,-0.8087 7.1962,-1.2128z"/>
      <path id="_104512344" class="fil0" d="M129.664 103.393c0.8596,0.2447 1.7013,0.4925 2.5248,0.7429 -2.4854,0.3792 -4.9693,0.7589 -7.4546,1.1381 -0.7686,-0.2337 -1.5539,-0.465 -2.3562,-0.6933 2.4289,-0.3959 4.8571,-0.7919 7.286,-1.1877z"/>
      <path id="_104512248" class="fil0" d="M130.875 103.744c0.8401,0.2471 1.6633,0.4969 2.4701,0.7491 -2.509,0.3719 -5.0162,0.7445 -7.5252,1.1163 -0.7558,-0.2363 -1.5271,-0.4704 -2.3142,-0.7019 2.4572,-0.3876 4.9132,-0.7756 7.3693,-1.1635z"/>
      <path id="_104512296" class="fil0" d="M132.059 104.097c0.8225,0.2494 1.6291,0.5012 2.4199,0.7554 -2.5299,0.3652 -5.0601,0.7305 -7.59,1.0957 -0.7438,-0.239 -1.5025,-0.476 -2.2763,-0.7106 2.4828,-0.3799 4.9649,-0.7602 7.4464,-1.1405z"/>
      <path id="_104512224" class="fil0" d="M133.219 104.453c0.8053,0.2513 1.5956,0.5049 2.3711,0.7605 -2.5495,0.3589 -5.0997,0.7176 -7.6492,1.0765 -0.7326,-0.2414 -1.4789,-0.481 -2.2395,-0.7184 2.5066,-0.3726 5.011,-0.746 7.5176,-1.1186z"/>
      <path id="_104512200" class="fil0" d="M134.354 104.812c0.7901,0.2531 1.5647,0.5085 2.3265,0.7656 -2.5674,0.3529 -5.1359,0.7055 -7.7033,1.0584 -0.7224,-0.2438 -1.4571,-0.486 -2.2063,-0.726 2.5276,-0.366 5.0556,-0.732 7.5831,-1.098z"/>
      <path id="_104512464" class="fil0" d="M135.468 105.174c0.7746,0.2548 1.5361,0.5116 2.2845,0.77 -2.5842,0.3472 -5.168,0.6946 -7.7521,1.0418 -0.7127,-0.2461 -1.4377,-0.4906 -2.1752,-0.7332 2.5471,-0.3597 5.0957,-0.719 7.6428,-1.0786z"/>
      <path id="_104512176" class="fil0" d="M136.56 105.537c0.7613,0.2561 1.508,0.5143 2.2451,0.7738 -2.5979,0.3424 -5.1982,0.684 -7.7961,1.0264 -0.7047,-0.248 -1.4185,-0.4949 -2.1464,-0.7398 2.5651,-0.3537 5.1323,-0.7068 7.6974,-1.0604z"/>
      <path id="_104512008" class="fil0" d="M137.634 105.903c0.7479,0.2577 1.4834,0.5171 2.2102,0.7776 -2.6127,0.3371 -5.2227,0.6754 -7.8354,1.0125 -0.6977,-0.2501 -1.4038,-0.4991 -2.1217,-0.7466 2.5827,-0.3477 5.1655,-0.6954 7.7469,-1.0435z"/>
      <path id="_104512152" class="fil0" d="M138.689 106.27c0.7354,0.2589 1.4608,0.5191 2.1767,0.7805 -2.6232,0.3333 -5.2471,0.6664 -7.8702,0.9998 -0.69,-0.2519 -1.3891,-0.5027 -2.0979,-0.7522 2.5979,-0.3424 5.1935,-0.6857 7.7914,-1.0281z"/>
      <path id="_104515944" class="fil0" d="M139.739 106.643c0.7249,0.2599 1.4404,0.521 2.1468,0.7831 -2.6342,0.3293 -5.2668,0.6593 -7.9011,0.9885 -0.6835,-0.2536 -1.3758,-0.5063 -2.0773,-0.7577 2.6106,-0.3379 5.221,-0.676 7.8316,-1.0139z"/>
      <path id="_104515872" class="fil0" d="M140.774 107.017c0.7149,0.2604 1.4207,0.5222 2.1187,0.7848 -2.643,0.3259 -5.2844,0.6527 -7.9274,0.9786 -0.6782,-0.2551 -1.3638,-0.5094 -2.0585,-0.7625 2.6218,-0.3338 5.2454,-0.6671 7.8672,-1.0009z"/>
      <path id="_104515272" class="fil0" d="M141.794 107.392c0.7061,0.2613 1.4034,0.5237 2.0953,0.7867 -2.6498,0.3234 -5.2999,0.6468 -7.9497,0.9702 -0.6749,-0.2565 -1.3552,-0.5125 -2.044,-0.7674 2.6321,-0.33 5.2663,-0.6594 7.8984,-0.9895z"/>
      <path id="_104515200" class="fil0" d="M142.803 107.768c0.698,0.2617 1.3886,0.5244 2.0741,0.7877 -2.6565,0.3209 -5.3115,0.6424 -7.968,0.9632 -0.6712,-0.2578 -1.3476,-0.5151 -2.0312,-0.7715 2.641,-0.3267 5.2841,-0.6527 7.9251,-0.9794z"/>
      <path id="_104515656" class="fil0" d="M143.8 108.145c0.6901,0.2622 1.375,0.5251 2.0562,0.7885 -2.6605,0.3193 -5.3219,0.6384 -7.9824,0.9577 -0.6698,-0.259 -1.3433,-0.5175 -2.0217,-0.7753 2.6498,-0.3234 5.2994,-0.647 7.9479,-0.9709z"/>
      <path id="_104515632" class="fil0" d="M144.788 108.522c0.6845,0.2624 1.3637,0.5255 2.0411,0.7887 -2.6638,0.318 -5.3291,0.6356 -7.9929,0.9537 -0.6687,-0.2599 -1.3391,-0.5196 -2.0148,-0.7786 2.6553,-0.3214 5.3114,-0.6424 7.9666,-0.9638z"/>
      <path id="_104515320" class="fil0" d="M145.768 108.899c0.6796,0.2624 1.3548,0.5253 2.0289,0.7884 -2.6665,0.317 -5.3331,0.634 -7.9996,0.9511 -0.668,-0.2607 -1.3371,-0.5213 -2.0105,-0.7814 2.6598,-0.3195 5.3214,-0.6385 7.9812,-0.9581z"/>
      <path id="_104515752" class="fil0" d="M146.742 109.277c0.6751,0.2623 1.3474,0.525 2.0196,0.7877 -2.6672,0.3167 -5.3351,0.6332 -8.0023,0.9499 -0.6689,-0.2613 -1.3376,-0.5227 -2.0093,-0.7837 2.6638,-0.318 5.3283,-0.6359 7.992,-0.9539z"/>
      <path id="_104515248" class="fil0" d="M147.711 109.654c0.6712,0.2619 1.3415,0.524 2.0121,0.786 -2.6671,0.3167 -5.3342,0.6336 -8.0014,0.9503 -0.6699,-0.2616 -1.3394,-0.5234 -2.0098,-0.785 2.6665,-0.3171 5.3327,-0.6343 7.9991,-0.9513z"/>
      <path id="_104515776" class="fil0" d="M148.675 110.03c0.6697,0.2616 1.3385,0.5234 2.0099,0.7848 -2.6652,0.3175 -5.3315,0.6347 -7.9967,0.9522 -0.6733,-0.2622 -1.3439,-0.5247 -2.0154,-0.7871 2.6671,-0.3167 5.3351,-0.6332 8.0022,-0.9499z"/>
      <path id="_104515584" class="fil0" d="M149.636 110.406c0.6685,0.2611 1.3382,0.5222 2.0099,0.7829 -2.6631,0.3183 -5.3252,0.6371 -7.9883,0.9554 -0.6762,-0.2624 -1.3503,-0.5252 -2.0232,-0.7881 2.6671,-0.3168 5.3345,-0.6335 8.0016,-0.9502z"/>
      <path id="_104515104" class="fil0" d="M150.598 110.781c0.6685,0.2603 1.338,0.5206 2.0119,0.7803 -2.6585,0.32 -5.3176,0.64 -7.9761,0.9601 -0.681,-0.2624 -1.3576,-0.5254 -2.0331,-0.7885 2.6664,-0.317 5.3321,-0.6344 7.9973,-0.9519z"/>
      <path id="_104515536" class="fil0" d="M151.56 111.156c0.6687,0.2595 1.3404,0.5187 2.0171,0.7773 -2.6531,0.3221 -5.3066,0.6442 -7.9597,0.9664 -0.6864,-0.2623 -1.3681,-0.5253 -2.0465,-0.7886 2.6632,-0.3183 5.326,-0.6368 7.9891,-0.9551z"/>
      <path id="_104502624" class="fil0" d="M152.523 111.528c0.6707,0.2585 1.3448,0.5166 2.0252,0.7739 -2.6464,0.3247 -5.2931,0.6494 -7.9395,0.9741 -0.6931,-0.2621 -1.3798,-0.525 -2.063,-0.7882 2.6585,-0.3201 5.3188,-0.6397 7.9773,-0.9598z"/>
      <path id="_104502552" class="fil0" d="M153.489 111.899c0.6734,0.2574 1.3505,0.5143 2.0362,0.7701 -2.6376,0.328 -5.2775,0.6553 -7.9151,0.9833 -0.7012,-0.2616 -1.3936,-0.5244 -2.0824,-0.7876 2.6531,-0.3221 5.3082,-0.6436 7.9613,-0.9658z"/>
      <path id="_104502648" class="fil0" d="M154.461 112.269c0.6768,0.2559 1.3586,0.5113 2.0491,0.7655 -2.6287,0.3313 -5.258,0.6625 -7.8867,0.9938 -0.709,-0.261 -1.409,-0.5232 -2.104,-0.7859 2.6479,-0.3242 5.2952,-0.6487 7.9416,-0.9734z"/>
      <path id="_104502744" class="fil0" d="M155.437 112.636c0.681,0.2545 1.3692,0.5082 2.0659,0.7608 -2.6176,0.3354 -5.2355,0.6707 -7.8538,1.0058 -0.7182,-0.2603 -1.4276,-0.5218 -2.1296,-0.7842 2.6396,-0.3273 5.2779,-0.6552 7.9175,-0.9824z"/>
      <path id="_104502336" class="fil0" d="M156.421 113.002c0.6871,0.2529 1.3804,0.505 2.0853,0.7557 -2.6049,0.3399 -5.2115,0.6793 -7.8164,1.0192 -0.7296,-0.2594 -1.4472,-0.5204 -2.1584,-0.7821 2.6301,-0.3309 5.2594,-0.662 7.8895,-0.9928z"/>
      <path id="_104502408" class="fil0" d="M157.413 113.365c0.6929,0.2512 1.3947,0.5013 2.1069,0.7499 -2.592,0.3445 -5.1822,0.6897 -7.7743,1.0341 -0.7401,-0.2584 -1.4693,-0.5183 -2.1894,-0.7793 2.6196,-0.3346 5.2372,-0.6701 7.8568,-1.0047z"/>
      <path id="_104502456" class="fil0" d="M158.415 113.725c0.6993,0.2494 1.4094,0.4975 2.1314,0.7438 -2.5756,0.3502 -5.1518,0.7002 -7.7274,1.0503 -0.7533,-0.257 -1.4943,-0.5159 -2.2239,-0.7761 2.607,-0.3391 5.2128,-0.6788 7.8199,-1.018z"/>
      <path id="_104502216" class="fil0" d="M159.428 114.082c0.7082,0.2472 1.4271,0.4931 2.1584,0.7372 -2.5577,0.3561 -5.1176,0.7117 -7.6753,1.0678 -0.7661,-0.2557 -1.5194,-0.5133 -2.2614,-0.7724 2.5921,-0.3444 5.1863,-0.6882 7.7783,-1.0326z"/>
      <path id="_104502240" class="fil0" d="M160.453 114.437c0.7172,0.2452 1.4463,0.4888 2.1888,0.7304 -2.5397,0.3621 -5.0783,0.7247 -7.618,1.0868 -0.7811,-0.2542 -1.5482,-0.5105 -2.3026,-0.7684 2.5769,-0.3497 5.155,-0.6991 7.7318,-1.0488z"/>
      <path id="_104502672" class="fil0" d="M161.422 114.765c0.7259,0.2431 1.4646,0.4844 2.2188,0.7235 -2.5191,0.3687 -5.0405,0.7367 -7.5596,1.1054 -0.7963,-0.2524 -1.5765,-0.5072 -2.343,-0.7639 2.5615,-0.3549 5.1237,-0.7096 7.6838,-1.065z"/>
      <path id="_104502048" class="fil0" d="M162.403 115.089c0.7362,0.2407 1.4855,0.4797 2.2512,0.7161 -2.4979,0.3753 -4.9981,0.75 -7.4961,1.1253 -0.8117,-0.2506 -1.6061,-0.5039 -2.3865,-0.7591 2.5435,-0.3608 5.0879,-0.7215 7.6314,-1.0823z"/>
      <path id="_104501496" class="fil0" d="M163.398 115.411c0.7465,0.2384 1.5088,0.4746 2.286,0.7085 -2.4765,0.3818 -4.951,0.7644 -7.4275,1.1462 -0.827,-0.2488 -1.6382,-0.5002 -2.4325,-0.7539 2.5253,-0.3667 5.0488,-0.7341 7.574,-1.1008z"/>
      <path id="_104501664" class="fil0" d="M164.409 115.73c0.7581,0.2359 1.5326,0.4694 2.3226,0.7003 -2.4507,0.3895 -4.903,0.7787 -7.3536,1.1682 -0.8438,-0.2467 -1.6712,-0.4961 -2.4809,-0.748 2.5043,-0.3734 5.0077,-0.7471 7.5119,-1.1205z"/>
      <path id="_104501880" class="fil0" d="M165.435 116.044c0.771,0.2333 1.5581,0.4642 2.3626,0.6922 -2.4247,0.3969 -4.8492,0.7941 -7.2739,1.191 -0.8625,-0.2444 -1.7067,-0.492 -2.5332,-0.7421 2.4815,-0.3804 4.9631,-0.7608 7.4445,-1.1411z"/>
      <path id="_104501400" class="fil0" d="M166.478 116.355c0.7842,0.2307 1.5857,0.4586 2.4045,0.6836 -2.3969,0.4048 -4.7918,0.8101 -7.1887,1.2149 -0.8813,-0.2422 -1.7438,-0.4875 -2.5877,-0.7357 2.4572,-0.3876 4.9147,-0.7752 7.3719,-1.1628z"/>
      <path id="_104501376" class="fil0" d="M167.539 116.663c0.7979,0.2279 1.6138,0.4528 2.4482,0.6745 -2.3657,0.4132 -4.7318,0.8263 -7.0975,1.2395 -0.9013,-0.2395 -1.7824,-0.4825 -2.6443,-0.7285 2.4314,-0.3951 4.8622,-0.7904 7.2936,-1.1855z"/>
      <path id="_104501808" class="fil0" d="M168.619 116.967c0.8127,0.225 1.6441,0.4469 2.4949,0.6652 -2.3327,0.4218 -4.6675,0.8431 -7.0003,1.2649 -0.9222,-0.2366 -1.8234,-0.4772 -2.7044,-0.7211 2.4036,-0.4029 4.8062,-0.8061 7.2098,-1.209z"/>
     </g>
    </g>
    <path id="_104501784" class="fil1" d="M122.359 102.997c18.0304,4.6231 27.2382,10.6415 45.2547,15.2672"/>
   </g>
  </g>
 </g>
</svg>
